# xmcd CD database file
# Generated: Wed Jul 23 15:24:18 2003 by KSCD
# 
# Track frame offsets:
#       150
#       22977
#       47542
#       70012
#       88350
#       107260
#       126052
#       146812
#       176662
#       202725
#       224287
#       238762
#       266870
#       293025
#       317500
#
# Disc length: 4487 seconds
#
# Revision: 3
# Processed by: cddbd v1.4PL0 Copyright (c) Steve Scherf et al.
# Submitted via: Kscd 1.3.3
#
DISCID=d611850f
DTITLE=Kenny G. - The Best of Romantics
DYEAR=1900
DGENRE=Blues
TTITLE0=Songbird
TTITLE1=Silhouette
TTITLE2=Forever in love
TTITLE3=Theme from "Dying Young"
TTITLE4=Tradewinds
TTITLE5=Midnight Motion
TTITLE6=Uncle Al
TTITLE7=Sentimental
TTITLE8=Pastel
TTITLE9=Three of a Kind
TTITLE10=Sister Rose
TTITLE11=Let Go
TTITLE12=Esther
TTITLE13=Going home
TTITLE14=Waiting for you
EXTD=ID3G: 0
EXTT0=
EXTT1=
EXTT2=
EXTT3=
EXTT4=
EXTT5=
EXTT6=
EXTT7=
EXTT8=
EXTT9=
EXTT10=
EXTT11=
EXTT12=
EXTT13=
EXTT14=
PLAYORDER=
